<svg xmlns="http://www.w3.org/2000/svg" viewBox="0 0 205.28 99.48"><defs><style>.cls-1{fill:#2a418a;}.cls-2{fill:#faa837;}.cls-3{fill:#76c7a3;}.cls-4{fill:#273d87;}.cls-5{fill:#837ab9;}.cls-6{fill:#2b428b;}.cls-7{fill:#2b438b;}.cls-8{fill:#ef3a29;}.cls-9{fill:#bcd137;}.cls-10{fill:#bbcf38;}.cls-11{fill:#abd9e9;}.cls-12{fill:#a9d6e7;}.cls-13{fill:#e77bb1;}.cls-14{fill:#e57bb0;}.cls-15{fill:#ece3ed;}.cls-16{fill:#b8c957;}</style></defs><g id="Layer_2" data-name="Layer 2"><g id="Layer_1-2" data-name="Layer 1"><path class="cls-1" d="M0,39.54c-.11-3.17,1.17-4.44,4-4a13,13,0,0,0,1.87,0c8.7,0,8.8,0,11.92,7.93.83,2.13,1.95,2.25,3.91,2.2,18.65-.52,37.3-.91,56.52-1.35-1.16,3.93-2.22,7.53-3.29,11.13-1.75,5.94-3.68,11.83-5.18,17.83-.65,2.62-1.85,3.26-4.37,3.28-10.83.07-21.65.34-32.48.55a14.15,14.15,0,0,0-1.8.29A42.91,42.91,0,0,0,33.77,84c.48.83,2.2,1.34,3.34,1.3C47.3,85,57.49,84.54,68,84.1v5.35c-9.07,0-18.13,0-27.19,0-3.74,0-8.45,1.28-10.94-.5s-3.22-6.68-4.56-10.26C21.09,67.44,16.8,56.22,12.81,44.88c-1-3-2.24-4.58-5.61-4.46C4.88,40.51,2.54,39.88,0,39.54ZM39.22,56.38c0,2.21.67,3.38,3.25,3a64.18,64.18,0,0,1,7-.4L51,58.82c.8-.53,2.18-1,2.29-1.59a58,58,0,0,0,.47-6.86c.58-1.9-.32-2.4-2-2.22-2.56.27-5.12.47-7.68.7L38.26,50l.84,5.17ZM35.7,57l-.21-1.4c-.29-1.79-.58-3.57-.88-5.36-.34-.38-.69-1.09-1-1.08-4.13.15-8.26.4-12.64.64,1.16,3.13,2.05,6,3.29,8.62.36.77,1.72,1.08,2.63,1.6,2.21,0,4.42-.06,6.63,0S36.39,59,35.7,57Zm-7.36,6H26a33.6,33.6,0,0,1,1.67,4.82c.82,4.42,3.49,5.78,7.61,4.83a10.75,10.75,0,0,0,2.54-1.35l-1.29-9.13Zm20.35-1.2-8.85.48,2,9.78H52.3c0-2.75-.11-4.85,0-6.92C52.5,62.4,51.42,61.25,48.69,61.78ZM65.81,61H56.26c-.15,3.27-.26,5.6-.37,7.92l-.06,0c0,.12,0,.24,0,.36-.07.72-.14,1.44-.24,2.54l7.15-.37c.5,0,1.11.1,1.46-.14a3.93,3.93,0,0,0,1.58-1.66c.82-2.32,1.5-4.7,2.14-7.08C68.49,60.34,67.11,60.67,65.81,61ZM57.36,50.26l-.81,8.49,10-.72c1-.31,2.55-.39,2.75-1,1.07-3,1.79-6.21,2.74-9.77-4.8.28-9,.44-13.13.86C58.33,48.21,57.87,49.53,57.36,50.26Z"/><path class="cls-2" d="M30,8.52,67,6.82C65.69,14.61,64.43,22,63.1,29.75L29,26.47C29.32,20.52,29.63,14.76,30,8.52Z"/><path class="cls-3" d="M44.64,28.92V43.64c-6.83,0-13.38,0-19.92-.08a2.71,2.71,0,0,1-1.89-1.71c-1-4.32-1.9-8.68-3-14Z"/><path class="cls-4" d="M97.78,76a7.4,7.4,0,0,1-1.73,1,17.49,17.49,0,0,1-3,.53c-1-2.8-2.43-5.71-2.92-8.79s-1.85-3.92-4.65-3.54a29.09,29.09,0,0,1-3.66,0l-3,11.38-5.08-1c-.12-5,5.31-9.3-.34-15,4.57.8,5.71-1,6.32-3.62a21.83,21.83,0,0,1,1.91-5.42c.58-1.06,1.86-1.73,3.56-3.22,0,0,.1-1,.23-2.3l4.39-1.11C92.43,55.25,95,65.33,97.78,76ZM86.3,52.85l-2.91,7.73h4.76Z"/><path class="cls-4" d="M100.94,76.22c0-6.1,0-11.82,0-17.53a4.1,4.1,0,0,1,1-2.89c.83-.61,2.21-.48,3.35-.68.13,1.19.27,2.38.43,3.79,2.92-1.87,6.11-4.27,9.34-.11.84-.78,1.41-1.42,2.09-1.93,3.14-2.36,6.76-1.59,7.4,2.18,1,5.64,1,11.43,1.36,17.29h-4.87c0-4.19.17-8.33-.14-12.43-.06-.86-1.77-2-2.87-2.22-.56-.1-2,1.55-2.11,2.5-.28,3-.1,5.94-.1,9.31h-5.08V61.77c-3.54-.85-4.25,1.19-4.59,3.34a27.76,27.76,0,0,0,0,4.47C106.18,75.07,106.18,75.07,100.94,76.22Z"/><path class="cls-5" d="M47.27,32.28,72,30.9c-.47,3.75-.75,7.05-1.37,10.28a3,3,0,0,1-2.28,1.69C61.46,43,54.52,43,47.27,43Z"/><path class="cls-4" d="M139.8,60.34l-8.12-1.54c0-2,.5-3.29,3.24-3.32,8.48-.06,10.86,2.19,10.92,10.66,0,3,.3,6,.48,9.5-3.17,2.55-4,2.44-5.37-1.31-6.63,2.44-10.18,1.82-11.58-2C127.57,67.36,130.54,64.14,139.8,60.34Zm-5,10.7c5.63.36,6.32-.41,5.32-5.81C137.63,66.46,133.52,66,134.82,71Z"/><path class="cls-4" d="M155.39,55.58l.31,2.71c6.35-3.93,9.62-2.2,10.32,5.37.26,2.79.52,5.59.75,8.39.27,3.43-1,5.25-5.24,4.06,0-3.27-.06-6.81,0-10.35.06-2-.3-4.05-2.58-4.12s-3.48,1.8-3.44,4.19c0,1.49,0,3,0,4.47,0,2.94,1,6.62-4.73,5.47a14.6,14.6,0,0,1-.48-2.75c-.07-4.23,0-8.45,0-12.67C150.31,56.45,150.8,56,155.39,55.58Z"/><path class="cls-4" d="M197.05,71.26l8.23-.38c-.75,1.44-1.12,3.3-2.24,4.06-4.27,2.86-11.4.53-13.2-4.27-1.52-4-.81-7.81,1.86-11.33s6.45-3.33,10.11-3c2.51.25,4.26,4.11,2.67,6.51C202.52,65.87,199.75,68.3,197.05,71.26Zm2.5-11c-4.14-.16-5.76,2.25-4.41,6.46C197.62,65.26,200.26,63.94,199.55,60.29Z"/><path class="cls-4" d="M186.25,75.42l-5.07,2.22a33.45,33.45,0,0,1-.9-5.18c-.09-7.34-.05-14.68,0-22,0-4.61,0-4.65,5-4.45C186.74,55.66,182.56,65.55,186.25,75.42Z"/><path class="cls-4" d="M176.3,58.06V75.44a14,14,0,0,1-3.74,1.5c-.35.07-1.54-2.24-1.63-3.5a113.46,113.46,0,0,1-.31-13.29C170.77,57.19,173.28,57.65,176.3,58.06Z"/><path class="cls-6" d="M29.64,96.54c.18-4,1.79-5.76,4.27-5.14a6.17,6.17,0,0,1,3.9,3.88,3.46,3.46,0,0,1-4,4.1C32.11,99.12,30.63,97.26,29.64,96.54Z"/><path class="cls-7" d="M62.09,91.26c4.17,0,5.56,1.68,5.54,4.2a3.85,3.85,0,0,1-4,4c-2.64,0-4.42-1.79-4.09-4.26C59.72,93.58,61.47,92.15,62.09,91.26Z"/><path class="cls-8" d="M49.8,6.08l-6.86.71c-.39-2.08-.76-4.08-1.2-6.42L50.07,0Z"/><path class="cls-4" d="M172.05,55.22c-.51-1.07-1.7-2.44-1.39-3.14.56-1.28,2-2.16,3.1-3.2.9,1,2.62,2.15,2.49,3-.19,1.25-1.72,2.3-2.67,3.43Z"/><path class="cls-9" d="M66.55,58l-10,.72c.29-3,.55-5.77.81-8.49h10.7C67.49,53.23,67,55.63,66.55,58Z"/><path class="cls-10" d="M55.89,68.91c.11-2.32.22-4.65.37-7.92h9.55c-.43,1.81-.85,3.62-1.28,5.43C63.64,70.21,59.47,71.41,55.89,68.91Z"/><path class="cls-11" d="M41.83,72l-2-9.78,8.85-.48c0,.48-.08,1-.08,1.46,0,2.2.71,5-.34,6.42s-3.89,1.28-5.94,1.87C42.13,71.58,42,71.86,41.83,72Z"/><path class="cls-12" d="M28.34,63l8.2-.83,1.29,9.13C29.86,71.06,29.86,71.06,28.34,63Z"/><path class="cls-13" d="M39.1,55.15,38.26,50,44,48.85,49.15,50c1.15,3.27-.43,4.5-3.44,4.7Z"/><path class="cls-14" d="M35.49,55.55c-.48.08-1,.14-1.45.24-5.83,1.13-6.06,1-6.75-5.6h7.32C34.91,52,35.2,53.76,35.49,55.55Z"/><path class="cls-15" d="M39.1,55.15l6.61-.46c3-.2,4.59-1.43,3.44-4.7L44,48.85c2.56-.23,5.12-.43,7.68-.7,1.73-.18,2.63.32,2,2.22-2-.3-2.87.54-2.73,2.63.13,1.93,0,3.88,0,5.82L49.42,59c-.15-1.05-.3-2.1-.45-3.17l-9.75.6Z"/><path class="cls-16" d="M51,58.82c0-1.94.16-3.89,0-5.82-.14-2.09.68-2.93,2.73-2.63a58,58,0,0,1-.47,6.86C53.14,57.87,51.76,58.29,51,58.82Z"/></g></g></svg>